<?xml version="1.0" encoding="UTF-8"?>
<svg id="_レイヤー_1" data-name="レイヤー 1" xmlns="http://www.w3.org/2000/svg" viewBox="0 0 800 500">
  <defs>
    <style>
      .cls-1 {
        fill: #fff;
        stroke-width: 0px;
      }
    </style>
  </defs>
  <path class="cls-1" d="M698.11,308.36c-4.8,0-9.5.47-14.05,1.33.67-5.71,1.03-11.52,1.03-17.42,0-81.64-66.19-147.83-147.83-147.83-21.66,0-42.23,4.66-60.76,13.03-21.48-73.05-89.02-126.39-169.02-126.39-97.3,0-176.17,78.87-176.17,176.17,0,2.48.06,4.95.17,7.41-48.12,12.49-83.66,56.22-83.66,108.25,0,2.66.1,5.29.28,7.9-.17,1.17-.28,2.37-.28,3.59,0,102.64,92.68,124.09,92.68,124.09h557.62c41.46,0,75.06-33.61,75.06-75.06s-33.61-75.06-75.06-75.06Z"/>
</svg>