<?xml version="1.0" encoding="UTF-8"?>
<svg id="_レイヤー_1" data-name="レイヤー 1" xmlns="http://www.w3.org/2000/svg" viewBox="0 0 800 500">
  <defs>
    <style>
      .cls-1 {
        fill: #fff;
        stroke-width: 0px;
      }
    </style>
  </defs>
  <path class="cls-1" d="m673.7546,241.4812c-4.2733-76.452-65.6865-137.6457-142.2344-141.5582-6.6665-42.4749-43.4216-74.9655-87.7686-74.9655-39.7668,0-73.429,26.1261-84.7656,62.1492-5.2654-.5708-10.6113-.8727-16.0286-.8727-81.2211,0-147.0638,65.8427-147.0638,147.0638,0,3.8906.1539,7.7451.4506,11.5596-15.6639-8.3517-33.5451-13.0915-52.5357-13.0915-61.7618,0-111.8298,50.0679-111.8298,111.8298s50.0679,111.8298,111.8298,111.8298h519.3192c59.2238,0,107.2341-48.0103,107.2341-107.2341,0-55.6371-42.3726-101.3743-96.6072-106.7103Z"/>
</svg>