<?xml version="1.0" encoding="UTF-8"?>
<svg id="_レイヤー_1" data-name="レイヤー 1" xmlns="http://www.w3.org/2000/svg" viewBox="0 0 800 500">
  <defs>
    <style>
      .cls-1 {
        fill: #fff;
        stroke-width: 0px;
      }
    </style>
  </defs>
  <path class="cls-1" d="M673.75,241.48c-4.27-76.45-65.69-137.65-142.23-141.56-6.67-42.47-43.42-74.97-87.77-74.97-39.77,0-73.43,26.13-84.77,62.15-5.27-.57-10.61-.87-16.03-.87-81.22,0-147.06,65.84-147.06,147.06,0,3.89.15,7.75.45,11.56-15.66-8.35-33.55-13.09-52.54-13.09-61.76,0-111.83,50.07-111.83,111.83s50.07,111.83,111.83,111.83h519.32c59.22,0,107.23-48.01,107.23-107.23,0-55.64-42.37-101.37-96.61-106.71Z"/>
</svg>