<?xml version="1.0" encoding="UTF-8"?>
<svg id="_レイヤー_1" data-name="レイヤー 1" xmlns="http://www.w3.org/2000/svg" viewBox="0 0 280.19 213.38">
  <defs>
    <style>
      .cls-1 {
        fill: #fff;
      }

      .cls-1, .cls-2 {
        stroke-width: 0px;
      }

      .cls-2 {
        fill: #f29b78;
      }
    </style>
  </defs>
  <g>
    <path class="cls-2" d="m183.8,105.8c0,28.12-21.7,46.51-27.67,51.58-16.43,13.96-33.58,14.43-47,14.8-5.25.14-11.93.28-20.67-1.9-10.55-2.63-31.4-7.84-44.59-32.2-3.84-7.09-9.71-17.93-9.41-32.28.58-27.65,23.6-45.17,32.48-51.92,17.7-13.47,34.04-14.22,42.18-14.46,11.8-.35,40.68-1.51,60.42,27.37,5.09,7.45,14.25,21.36,14.25,39.01Z"/>
    <path class="cls-2" d="m124,33.46c-.63-3.36-1.45-6.95-2.54-10.7-2.5-8.63-5.72-15.91-8.83-21.76-.3-.56-.86-.92-1.49-.98-.57-.05-1.26-.03-1.98.19-5.26,1.61-2.38,10.88-8.64,23.14,0,0-1.66,3.26-3.2,10.77,4.49-.58,8.33-.72,11.29-.81,3.86-.11,9.19-.3,15.39.15Z"/>
    <path class="cls-2" d="m78.81,36.22c-.1-.25-.27-.48-.51-.66-3.08-3.31-6.72-6.83-10.97-10.33-6.93-5.71-13.7-9.9-19.58-12.97-.56-.29-1.23-.27-1.78.04-.5.28-1.06.69-1.52,1.27-3.43,4.3,4.18,10.32,5.94,23.98,0,0,.6,4.69,4.82,13.82.01.02.02.04.03.06,2.29-1.86,4.35-3.42,6-4.68,6.04-4.6,11.96-8,17.57-10.52Z"/>
    <path class="cls-2" d="m42.89,60.82c-4.43-.93-9.43-1.7-14.92-2.1-8.96-.66-16.9-.17-23.47.72-.63.08-1.16.49-1.43,1.06-.25.52-.47,1.17-.51,1.92-.31,5.49,9.37,6.01,18.7,16.15,0,0,2.06,2.23,7.33,5.69,3.83-9.07,9.4-16.79,15.15-23.15-.24-.16-.52-.27-.84-.28Z"/>
    <path class="cls-2" d="m20.6,119.2c-8.06,3.96-14.67,8.39-19.9,12.47-.5.39-.76,1-.7,1.64.05.57.19,1.25.53,1.91,2.5,4.9,11.12.45,24.29,4.49,0,0,2.62.8,8.29,1.15-3.2-6.26-6.66-14.18-8.19-23.68-1.42.62-2.86,1.29-4.32,2.01Z"/>
    <path class="cls-2" d="m40.33,153.25c-2.02,2.13-4.09,4.46-6.15,7.01-5.63,6.99-9.75,13.81-12.76,19.71-.29.56-.26,1.23.05,1.78.29.5.7,1.05,1.29,1.51,4.34,3.38,10.27-4.29,23.91-6.19,0,0,4.69-.65,13.77-4.96.35-.17.59-.35.75-.52-7.1-4.15-14.37-9.97-20.86-18.34Z"/>
    <path class="cls-2" d="m72,174.61c-.42,3.8-.69,7.95-.69,12.41,0,8.98,1.07,16.87,2.43,23.36.13.62.57,1.12,1.16,1.35.53.21,1.2.38,1.95.37,5.5-.09,5.31-9.78,14.74-19.82,0,0,3.11-3.32,7.34-11.96-4.36-.26-9.3-.88-14.93-2.29-3.31-.83-7.43-1.85-12-3.42Z"/>
    <path class="cls-2" d="m119.9,193.37c4.29,7.89,9,14.31,13.3,19.36.41.48,1.04.71,1.66.63.57-.07,1.24-.24,1.89-.61,4.79-2.71-.01-11.13,3.47-24.46,0,0,.89-3.43.82-10.85-9.34,3.04-18.4,3.92-26.64,4.29,1.48,3.65,3.28,7.57,5.5,11.64Z"/>
    <path class="cls-2" d="m160.28,168.78c-2.9,2.46-5.81,4.57-8.73,6.41,3.39,2.45,7.26,4.96,11.63,7.36,7.87,4.33,15.29,7.2,21.63,9.14.61.19,1.26.04,1.74-.36.44-.37.91-.87,1.26-1.53,2.58-4.86-6.01-9.37-10.25-22.47,0,0-1.13-3.48-5.36-9.89-4.98,5.45-9.5,9.28-11.93,11.35Z"/>
    <path class="cls-2" d="m206.18,125.72s-4.44-2.63-11.16-6.73c-1.8,9.57-5.5,18.01-9.86,25.18,3.82.69,8.02,1.25,12.56,1.56,8.96.6,34.66,7.49,41.22,6.57.63-.09,1.16-.49,1.43-1.06.24-.52.46-1.17.5-1.92.28-5.49-18.91-15.12-34.68-23.58Z"/>
    <path class="cls-2" d="m204.6,91.54c7.41-5.08,13.31-10.42,17.89-15.21.44-.46.6-1.1.46-1.72-.13-.56-.37-1.21-.8-1.82-3.18-4.49-11.07,1.15-24.68-.95,0,0-3.93-.6-12.21.46,3.88,6.84,7.74,15.37,9.65,25.18,3.09-1.69,6.35-3.66,9.69-5.95Z"/>
    <path class="cls-2" d="m173.25,39.57c2.6-8.6,3.86-16.46,4.44-23.06.06-.63-.22-1.24-.72-1.63-.45-.35-1.04-.71-1.76-.92-5.29-1.51-7.91,7.83-19.85,14.71,0,0-3.3,1.91-8.88,7.64,7.69,2.7,15.64,6.9,23.18,13.37,1.27-3.09,2.49-6.46,3.59-10.11Z"/>
    <path class="cls-1" d="m83.34,113.02c0,3.59-2.24,6.96-4.53,6.92-1.63-.03-2.77-1.78-3.08-2.25-.31-.47-1.44-2.21-1.45-4.67-.02-2.55,1.22-4.53,1.51-4.98.29-.46,1.22-1.9,3.02-1.94,2-.04,3.25,2.49,3.43,2.82.21.37,1.1,1.68,1.1,4.11Z"/>
    <path class="cls-1" d="m145.57,113.02c0,3.59-2.24,6.96-4.53,6.92-1.63-.03-2.77-1.78-3.08-2.25-.31-.47-1.44-2.21-1.45-4.67-.02-2.55,1.22-4.53,1.51-4.98.29-.46,1.22-1.9,3.02-1.94,2-.04,3.25,2.49,3.43,2.82.21.37,1.1,1.68,1.1,4.11Z"/>
    <g>
      <path class="cls-1" d="m75.78,152.87c4.82,3.53,9.72,5.53,13.83,6.81.14.04.29-.05.32-.19l3.89-19.31c.03-.14-.06-.27-.2-.29-4.07-.7-7.79-1.64-11.36-2.69-.12-.04-.25.03-.3.14l-6.26,15.23c-.04.11,0,.23.08.3Z"/>
      <path class="cls-1" d="m78.98,136.19c-3.74-1.19-7.37-2.47-11.14-3.72-3.4-1.13-6.44,2.48-4.73,5.63h0c2.89,5.35,6.3,9.4,9.86,12.51.14.13.37.07.44-.11l5.74-13.95c.06-.15-.02-.32-.17-.37Z"/>
      <path class="cls-1" d="m111.94,162.46c5-.18,10.57-.6,16.39-2.38.12-.04.2-.17.17-.29l-4.25-19.52c-.03-.13-.15-.21-.28-.19-3.95.68-8,1.1-12.16,1.17-.04,0-.08,0-.12,0v20.97c0,.14.12.25.26.25Z"/>
      <path class="cls-1" d="m152.98,130.39c-3.83,1.8-7.76,3.49-11.81,4.98-.14.05-.2.21-.14.34l6.03,12.62c.07.15.28.19.4.07,4.25-4.13,7.66-8.65,10.19-12.89,1.82-3.06-1.44-6.63-4.66-5.12Z"/>
      <path class="cls-1" d="m108.55,141.24c-4.21-.06-8.04-.36-11.59-.84-.13-.02-.25.07-.27.2l-3.98,19.73c-.03.13.06.26.18.29.77.2,1.49.38,2.15.55,5.56,1.39,9.96,1.47,13.51,1.39.14,0,.24-.11.24-.25v-20.82c0-.14-.11-.24-.25-.25Z"/>
      <path class="cls-1" d="m137.96,136.49c-3.47,1.16-7.02,2.16-10.67,2.94-.13.03-.22.16-.19.29l4.15,19.04c.03.15.19.24.33.18,3.92-1.54,7.92-3.77,11.91-7.02.45-.37.89-.74,1.33-1.12.08-.07.11-.19.06-.3l-6.63-13.89c-.05-.11-.18-.17-.3-.13Z"/>
    </g>
  </g>
  <path class="cls-2" d="m232.87,63.56h6.78v111.81c0,1.36-1.1,2.46-2.46,2.46h-2.15c-1.2,0-2.17-.97-2.17-2.17V63.56h0Z" transform="translate(111.25 -113.31) rotate(34.83)"/>
  <rect class="cls-2" x="250.77" y="70.17" width="12.37" height="42.9" rx="2.07" ry="2.07" transform="translate(98.36 -130.34) rotate(34.83)"/>
  <path class="cls-2" d="m279.49,89.3l-16.87,24.25c-1.24,1.78-3.68,2.21-5.45.98l-10.18-7.08c-1.78-1.24-2.21-3.68-.98-5.45l16.87-24.25c1.24-1.78,3.68-2.21,5.45-.98l10.18,7.08c1.78,1.24,2.21,3.68.98,5.45"/>
  <g>
    <rect class="cls-1" x="269.3" y="75.28" width="3.68" height="16.64" rx=".64" ry=".64" transform="translate(47.66 258.42) rotate(-55.17)"/>
    <rect class="cls-1" x="265.1" y="81.31" width="3.68" height="16.64" rx=".64" ry=".64" transform="translate(40.91 257.56) rotate(-55.17)"/>
    <rect class="cls-1" x="260.9" y="87.35" width="3.68" height="16.64" rx=".64" ry=".64" transform="translate(34.16 256.7) rotate(-55.17)"/>
    <rect class="cls-1" x="256.71" y="93.38" width="3.68" height="16.64" rx=".64" ry=".64" transform="translate(27.4 255.85) rotate(-55.17)"/>
    <rect class="cls-1" x="252.51" y="99.41" width="3.68" height="16.64" rx=".64" ry=".64" transform="translate(20.65 254.99) rotate(-55.17)"/>
  </g>
</svg>