<svg width="85" height="85" viewBox="0 0 85 85" fill="none" xmlns="http://www.w3.org/2000/svg">
<path d="M42.5 7.96875C23.46 7.96875 7.96875 23.46 7.96875 42.5C7.96875 61.54 23.46 77.0312 42.5 77.0312C61.54 77.0312 77.0312 61.54 77.0312 42.5C77.0312 23.46 61.54 7.96875 42.5 7.96875ZM42.5 13.2812C58.6686 13.2812 71.7188 26.3314 71.7188 42.5C71.7188 58.6686 58.6686 71.7188 42.5 71.7188C26.3314 71.7188 13.2812 58.6686 13.2812 42.5C13.2812 26.3314 26.3314 13.2812 42.5 13.2812ZM44.4125 25.4841L40.5875 29.2188L51.2125 39.8438H23.9062V45.1562H51.2125L40.5875 55.7812L44.4125 59.5159L59.5159 44.4098L61.4284 42.4973L59.5159 40.5848L44.4098 25.4814L44.4125 25.4841Z" fill="#333333"/>
</svg>
