<svg width="82" height="82" viewBox="0 0 82 82" fill="none" xmlns="http://www.w3.org/2000/svg">
<path d="M44.8438 57.6562C44.8438 58.4165 44.6183 59.1596 44.196 59.7917C43.7736 60.4238 43.1733 60.9165 42.4709 61.2074C41.7686 61.4983 40.9957 61.5745 40.2501 61.4261C39.5045 61.2778 38.8196 60.9117 38.2821 60.3742C37.7445 59.8366 37.3784 59.1517 37.2301 58.4061C37.0818 57.6605 37.1579 56.8877 37.4488 56.1853C37.7398 55.483 38.2324 54.8826 38.8645 54.4603C39.4966 54.0379 40.2398 53.8125 41 53.8125C42.0194 53.8125 42.9971 54.2175 43.7179 54.9383C44.4388 55.6592 44.8438 56.6368 44.8438 57.6562ZM41 23.0625C33.9339 23.0625 28.1875 28.2355 28.1875 34.5938V35.875C28.1875 36.5546 28.4575 37.2064 28.938 37.687C29.4186 38.1675 30.0704 38.4375 30.75 38.4375C31.4296 38.4375 32.0814 38.1675 32.562 37.687C33.0425 37.2064 33.3125 36.5546 33.3125 35.875V34.5938C33.3125 31.0703 36.7623 28.1875 41 28.1875C45.2377 28.1875 48.6875 31.0703 48.6875 34.5938C48.6875 38.1172 45.2377 41 41 41C40.3204 41 39.6686 41.27 39.188 41.7505C38.7075 42.2311 38.4375 42.8829 38.4375 43.5625V46.125C38.4375 46.8046 38.7075 47.4564 39.188 47.937C39.6686 48.4175 40.3204 48.6875 41 48.6875C41.6796 48.6875 42.3314 48.4175 42.812 47.937C43.2925 47.4564 43.5625 46.8046 43.5625 46.125V45.8944C49.405 44.8213 53.8125 40.1608 53.8125 34.5938C53.8125 28.2355 48.0661 23.0625 41 23.0625ZM74.3125 41C74.3125 47.5886 72.3588 54.0292 68.6983 59.5074C65.0379 64.9856 59.8352 69.2554 53.7481 71.7767C47.6611 74.2981 40.963 74.9578 34.5011 73.6724C28.0391 72.387 22.1033 69.2143 17.4445 64.5555C12.7857 59.8967 9.61296 53.9609 8.32759 47.4989C7.04222 41.037 7.70192 34.3389 10.2233 28.2519C12.7446 22.1648 17.0144 16.9621 22.4926 13.3017C27.9708 9.64124 34.4114 7.6875 41 7.6875C49.8322 7.69683 58.2999 11.2095 64.5452 17.4548C70.7905 23.7001 74.3032 32.1678 74.3125 41ZM69.1875 41C69.1875 35.425 67.5343 29.9753 64.437 25.3399C61.3398 20.7045 56.9375 17.0916 51.7869 14.9581C46.6363 12.8247 40.9687 12.2665 35.5009 13.3541C30.0331 14.4417 25.0105 17.1263 21.0684 21.0684C17.1263 25.0105 14.4417 30.0331 13.3541 35.5009C12.2665 40.9687 12.8247 46.6363 14.9581 51.7869C17.0916 56.9375 20.7045 61.3398 25.3399 64.437C29.9753 67.5343 35.425 69.1875 41 69.1875C48.4732 69.179 55.6379 66.2066 60.9222 60.9222C66.2066 55.6379 69.179 48.4732 69.1875 41Z" fill="#333333"/>
</svg>
